<svg xmlns="http://www.w3.org/2000/svg" viewBox="0 0 24 24"><path fill="#167ac6" d="M12 2.4c-3.478 0-6.563.39-8.438.674-1.55.235-2.79 1.43-3.074 3.04C.245 7.48 0 9.49 0 12c0 2.507.245 4.518.488 5.887.286 1.608 1.525 2.805 3.075 3.04 1.88.283 4.98.673 8.437.673 3.458 0 6.556-.39 8.438-.674 1.55-.234 2.79-1.43 3.074-3.04.242-1.37.488-3.385.488-5.886 0-2.502-.245-4.516-.488-5.887-.285-1.608-1.525-2.804-3.075-3.04C18.564 2.79 15.477 2.4 12 2.4zm0 2.4c3.172 0 6.01.264 7.725.524.738.112 1.292.707 1.425 1.463.214 1.2.45 2.97.45 5.213s-.237 4.013-.45 5.213c-.134.757-.686 1.35-1.425 1.463-1.722.26-4.573.523-7.725.523-3.154 0-6.004-.264-7.725-.524-.738-.112-1.328-.707-1.463-1.463C2.6 16.015 2.4 14.25 2.4 12s.2-4.015.413-5.213c.134-.756.724-1.35 1.462-1.463C5.99 5.064 8.828 4.8 12 4.8z"/><path fill="#167ac6" d="M12.75 7.08L9.87 9.96c-.167.17-.27.41-.27.647v4.58c0 .496.403.9.9.9h3.916c.356 0 .682-.218.826-.544l1.438-3.24c.08-.18.123-.374.123-.57v-.45c0-.497-.464-.96-.96-.96H12.96s.69-1.85.69-2.177c0-.843-.9-1.066-.9-1.066zM7.2 10.322v5.764h1.44v-5.764H7.2z"/></svg>